<svg xmlns="http://www.w3.org/2000/svg" width="16" height="16" viewBox="0 0 16 16"><title>object</title><path d="M16 12a4 4 0 0 1-4 4H4a4 4 0 0 1-4-4V4a4 4 0 0 1 4-4h8a4 4 0 0 1 4 4" fill="#3196d3"></path><path d="M13.1 7.31l-1.15-.5V5.3A2.21 2.21 0 0 0 9.6 3.15a.75.75 0 0 0 0 1.5c.26 0 .86.08.86.65v2a.75.75 0 0 0 .44.7.75.75 0 0 0-.45.69v2c0 .3-.17.66-.85.66a.75.75 0 1 0 0 1.5 2.18 2.18 0 0 0 2.35-2.15V9.19l1.15-.5a.75.75 0 0 0 0-1.37zM5.55 7.3v-2c0-.57.6-.65.86-.65a.75.75 0 0 0 0-1.5A2.21 2.21 0 0 0 4.05 5.3v1.51l-1.15.5a.75.75 0 0 0 0 1.38l1.15.5v1.51a2.18 2.18 0 0 0 2.35 2.15.75.75 0 0 0 0-1.5c-.68 0-.84-.36-.85-.65v-2A.75.75 0 0 0 5.1 8a.75.75 0 0 0 .45-.7z" fill="#ffffff"></path></svg>