<svg xmlns="http://www.w3.org/2000/svg" width="16" height="16" viewBox="0 0 16 16"><title>null</title><path d="M16 12.3a3.76 3.76 0 0 1-3.7 3.7H3.7A3.69 3.69 0 0 1 0 12.3V3.7A3.69 3.69 0 0 1 3.7 0h8.6A3.69 3.69 0 0 1 16 3.7z" fill="#91a2b0"></path><path d="M10.68 4.73l.48-.86a.75.75 0 1 0-1.31-.73L9.37 4A4.2 4.2 0 0 0 8 3.75a4.23 4.23 0 0 0-2.68 7.52l-.48.86a.75.75 0 1 0 1.31.73l.48-.86a4.2 4.2 0 0 0 1.37.25 4.23 4.23 0 0 0 2.68-7.52zM5.25 8a2.73 2.73 0 0 1 3.38-2.67L6.06 9.95A2.74 2.74 0 0 1 5.25 8zM8 10.75a2.73 2.73 0 0 1-.63-.08l2.57-4.62A2.75 2.75 0 0 1 8 10.75z" fill="#ffffff"></path></svg>