<svg xmlns="http://www.w3.org/2000/svg" width="16" height="16" viewBox="0 0 16 16"><title>string</title><path d="M16 12a4 4 0 0 1-4 4H4a4 4 0 0 1-4-4V4a4 4 0 0 1 4-4h8a4 4 0 0 1 4 4" fill="#149570"></path><path d="M6.4 5.65h.2a.75.75 0 0 0 0-1.5h-.2A2.55 2.55 0 0 0 3.85 6.7v4.2a.75.75 0 0 0 .75.75.74.74 0 0 0 .25-.05v.05H6.1a1.2 1.2 0 0 0 1.25-1.25A1.2 1.2 0 0 0 6.1 9.15h-.75V6.7A1 1 0 0 1 6.4 5.65zM11.1 9.15h-.75V6.3a.61.61 0 0 1 .65-.65h.6a.75.75 0 0 0 0-1.5H11A2.13 2.13 0 0 0 8.85 6.3v4.6a.75.75 0 0 0 .75.75.74.74 0 0 0 .25-.05v.05h1.25a1.2 1.2 0 0 0 1.25-1.25 1.2 1.2 0 0 0-1.25-1.25z" fill="#ffffff"></path></svg>